<svg xmlns="http://www.w3.org/2000/svg" xmlns:xlink="http://www.w3.org/1999/xlink" width="500" zoomAndPan="magnify" viewBox="0 0 375 374.999991" height="500" preserveAspectRatio="xMidYMid meet" version="1.0"><defs><g/></defs><rect x="-37.5" width="450" fill="#ffffff" y="-37.499999" height="449.999989" fill-opacity="1"/><rect x="-37.5" width="450" fill="#ffffff" y="-37.499999" height="449.999989" fill-opacity="1"/><rect x="-37.5" width="450" fill="#ffffff" y="-37.499999" height="449.999989" fill-opacity="1"/><path fill="#1363df" d="M 123.804688 206.632812 L 126.199219 209.003906 L 126.4375 209.242188 C 133.890625 216.960938 133.808594 229.394531 126.199219 237.007812 C 118.589844 244.621094 106.164062 244.703125 98.445312 237.246094 L 98.207031 237.007812 L 95.8125 234.640625 L 89.292969 228.089844 C 81.601562 220.398438 81.601562 207.804688 89.292969 200.085938 C 96.980469 192.390625 109.59375 192.390625 117.285156 200.085938 Z M 255.84375 98.289062 L 258.160156 95.972656 L 260.820312 93.308594 L 285.222656 68.898438 C 292.914062 61.207031 292.914062 48.613281 285.222656 40.894531 C 277.503906 33.203125 264.917969 33.203125 257.226562 40.894531 L 232.828125 65.304688 L 230.164062 67.96875 L 227.851562 70.285156 L 213.855469 84.285156 C 206.164062 91.980469 206.164062 104.570312 213.855469 112.289062 L 227.851562 126.292969 L 230.351562 128.769531 L 257.414062 155.84375 C 265.105469 163.535156 277.691406 163.535156 285.410156 155.84375 C 293.097656 148.148438 293.097656 135.53125 285.410156 127.835938 L 258.347656 100.765625 Z M 90.410156 41.082031 L 90.410156 41.054688 C 98.097656 33.359375 110.710938 33.359375 118.402344 41.054688 L 285.035156 207.777344 C 292.753906 215.472656 292.753906 228.089844 285.035156 235.785156 C 277.34375 243.476562 264.757812 243.476562 257.042969 235.785156 L 90.410156 69.058594 C 82.71875 61.367188 82.71875 48.773438 90.410156 41.082031 Z M 90.167969 120.890625 C 97.859375 113.195312 110.445312 113.195312 118.164062 120.890625 L 137.136719 139.871094 L 178.195312 180.945312 L 205.257812 208.019531 C 212.949219 215.710938 212.949219 228.328125 205.257812 236.023438 C 197.542969 243.714844 184.953125 243.714844 177.265625 236.023438 L 150.203125 208.949219 L 109.140625 167.875 L 90.167969 148.894531 C 82.480469 141.199219 82.480469 128.582031 90.167969 120.890625 Z M 90.167969 120.890625 " fill-opacity="1" fill-rule="evenodd"/><g fill="#1363df" fill-opacity="1"><g transform="translate(84.330248, 280.29045)"><g><path d="M 2 0 L 2 -20.625 L 15.328125 -20.625 L 15.328125 -17.59375 L 5.78125 -17.59375 L 5.78125 -11.8125 L 13.5 -11.8125 L 13.5 -8.84375 L 5.78125 -8.84375 L 5.78125 0 Z M 2 0 "/></g></g></g><g fill="#1363df" fill-opacity="1"><g transform="translate(105.131334, 280.29045)"><g><path d="M 2 0 L 2 -20.625 L 5.78125 -20.625 L 5.78125 0 Z M 2 0 "/></g></g></g><g fill="#1363df" fill-opacity="1"><g transform="translate(117.477114, 280.29045)"><g><path d="M 6.8125 0 L 6.8125 -17.59375 L 0.796875 -17.59375 L 0.796875 -20.625 L 16.625 -20.625 L 16.625 -17.59375 L 10.578125 -17.59375 L 10.578125 0 Z M 6.8125 0 "/></g></g></g><g fill="#000000" fill-opacity="1"><g transform="translate(139.455245, 280.29045)"><g><path d="M 2 0 L 2 -20.625 L 6.484375 -20.625 L 13.046875 -7.546875 L 19.53125 -20.625 L 24.015625 -20.625 L 24.015625 0 L 20.25 0 L 20.25 -14.234375 L 14.5 -2.953125 L 11.515625 -2.953125 L 5.78125 -14.234375 L 5.78125 0 Z M 2 0 "/></g></g></g><g fill="#000000" fill-opacity="1"><g transform="translate(170.037401, 280.29045)"><g><path d="M 0.671875 0 L 8.21875 -20.625 L 12.46875 -20.625 L 20.015625 0 L 16 0 L 14.34375 -4.78125 L 6.3125 -4.78125 L 4.625 0 Z M 7.34375 -7.71875 L 13.3125 -7.71875 L 10.3125 -16.296875 Z M 7.34375 -7.71875 "/></g></g></g><g fill="#000000" fill-opacity="1"><g transform="translate(195.257645, 280.29045)"><g><path d="M 2 0 L 2 -20.625 L 5.78125 -20.625 L 15.46875 -6.09375 L 15.46875 -20.625 L 19.25 -20.625 L 19.25 0 L 15.46875 0 L 5.78125 -14.5 L 5.78125 0 Z M 2 0 "/></g></g></g><g fill="#000000" fill-opacity="1"><g transform="translate(221.06711, 280.29045)"><g><path d="M 0.671875 0 L 8.21875 -20.625 L 12.46875 -20.625 L 20.015625 0 L 16 0 L 14.34375 -4.78125 L 6.3125 -4.78125 L 4.625 0 Z M 7.34375 -7.71875 L 13.3125 -7.71875 L 10.3125 -16.296875 Z M 7.34375 -7.71875 "/></g></g></g><g fill="#000000" fill-opacity="1"><g transform="translate(246.287357, 280.29045)"><g><path d="M 11.015625 0.359375 C 9.078125 0.359375 7.378906 -0.0820312 5.921875 -0.96875 C 4.472656 -1.851562 3.34375 -3.085938 2.53125 -4.671875 C 1.726562 -6.253906 1.328125 -8.097656 1.328125 -10.203125 C 1.328125 -12.316406 1.742188 -14.179688 2.578125 -15.796875 C 3.410156 -17.421875 4.597656 -18.691406 6.140625 -19.609375 C 7.679688 -20.523438 9.515625 -20.984375 11.640625 -20.984375 C 14.054688 -20.984375 16.054688 -20.398438 17.640625 -19.234375 C 19.234375 -18.078125 20.269531 -16.476562 20.75 -14.4375 L 16.53125 -14.4375 C 16.21875 -15.40625 15.644531 -16.15625 14.8125 -16.6875 C 13.988281 -17.226562 12.929688 -17.5 11.640625 -17.5 C 9.578125 -17.5 7.984375 -16.84375 6.859375 -15.53125 C 5.742188 -14.226562 5.1875 -12.441406 5.1875 -10.171875 C 5.1875 -7.890625 5.738281 -6.125 6.84375 -4.875 C 7.957031 -3.625 9.46875 -3 11.375 -3 C 13.238281 -3 14.644531 -3.503906 15.59375 -4.515625 C 16.550781 -5.535156 17.128906 -6.867188 17.328125 -8.515625 L 12.109375 -8.515625 L 12.109375 -11.34375 L 21.125 -11.34375 L 21.125 0 L 17.65625 0 L 17.359375 -2.71875 C 16.691406 -1.726562 15.851562 -0.96875 14.84375 -0.4375 C 13.84375 0.09375 12.566406 0.359375 11.015625 0.359375 Z M 11.015625 0.359375 "/></g></g></g><g fill="#000000" fill-opacity="1"><g transform="translate(273.628801, 280.29045)"><g><path d="M 2 0 L 2 -20.625 L 15.46875 -20.625 L 15.46875 -17.59375 L 5.78125 -17.59375 L 5.78125 -11.9375 L 14.59375 -11.9375 L 14.59375 -8.984375 L 5.78125 -8.984375 L 5.78125 -3.03125 L 15.46875 -3.03125 L 15.46875 0 Z M 2 0 "/></g></g></g></svg>