<svg xmlns="http://www.w3.org/2000/svg" xmlns:xlink="http://www.w3.org/1999/xlink" width="500" zoomAndPan="magnify" viewBox="0 0 375 374.999991" height="500" preserveAspectRatio="xMidYMid meet" version="1.0"><defs><g/><clipPath id="b68f885bdb"><path d="M 21.109375 163 L 69.859375 163 L 69.859375 211.703125 L 21.109375 211.703125 Z M 21.109375 163 " clip-rule="nonzero"/></clipPath></defs><g clip-path="url(#b68f885bdb)"><path fill="#1363df" d="M 30.835938 202.925781 L 31.386719 203.472656 L 31.441406 203.527344 C 33.160156 205.304688 33.140625 208.171875 31.386719 209.925781 C 29.632812 211.679688 26.769531 211.699219 24.992188 209.980469 L 24.933594 209.925781 L 24.382812 209.378906 L 22.878906 207.871094 C 21.109375 206.097656 21.109375 203.195312 22.878906 201.414062 C 24.652344 199.644531 27.5625 199.644531 29.332031 201.414062 Z M 61.269531 177.957031 L 68.042969 171.183594 C 69.816406 169.410156 69.816406 166.507812 68.042969 164.726562 C 66.265625 162.953125 63.363281 162.953125 61.589844 164.726562 L 55.964844 170.355469 L 51.59375 174.726562 C 49.820312 176.5 49.820312 179.402344 51.59375 181.183594 L 54.820312 184.410156 L 55.394531 184.980469 L 61.632812 191.21875 C 63.40625 192.992188 66.308594 192.992188 68.085938 191.21875 C 69.859375 189.445312 69.859375 186.539062 68.085938 184.765625 L 61.847656 178.527344 Z M 23.136719 164.769531 L 23.136719 164.765625 C 24.910156 162.992188 27.816406 162.992188 29.589844 164.765625 L 68 203.1875 C 69.777344 204.960938 69.777344 207.871094 68 209.644531 C 66.226562 211.414062 63.324219 211.414062 61.546875 209.644531 L 23.136719 171.21875 C 21.367188 169.445312 21.367188 166.542969 23.136719 164.769531 Z M 23.082031 183.164062 C 24.855469 181.390625 27.757812 181.390625 29.535156 183.164062 L 43.375 197.003906 L 49.609375 203.242188 C 51.382812 205.015625 51.382812 207.925781 49.609375 209.699219 C 47.832031 211.472656 44.929688 211.472656 43.160156 209.699219 L 36.921875 203.457031 L 23.082031 189.617188 C 21.3125 187.84375 21.3125 184.9375 23.082031 183.164062 Z M 23.082031 183.164062 " fill-opacity="1" fill-rule="evenodd"/></g><g fill="#1363df" fill-opacity="1"><g transform="translate(80.140523, 201.246827)"><g><path d="M 2.75 0 L 2.75 -28.34375 L 21.046875 -28.34375 L 21.046875 -24.171875 L 7.9375 -24.171875 L 7.9375 -16.234375 L 18.546875 -16.234375 L 18.546875 -12.140625 L 7.9375 -12.140625 L 7.9375 0 Z M 2.75 0 "/></g></g></g><g fill="#1363df" fill-opacity="1"><g transform="translate(108.717194, 201.246827)"><g><path d="M 2.75 0 L 2.75 -28.34375 L 7.9375 -28.34375 L 7.9375 0 Z M 2.75 0 "/></g></g></g><g fill="#1363df" fill-opacity="1"><g transform="translate(125.677105, 201.246827)"><g><path d="M 9.359375 0 L 9.359375 -24.171875 L 1.09375 -24.171875 L 1.09375 -28.34375 L 22.828125 -28.34375 L 22.828125 -24.171875 L 14.53125 -24.171875 L 14.53125 0 Z M 9.359375 0 "/></g></g></g><g fill="#ffffff" fill-opacity="1"><g transform="translate(150.524834, 200.435353)"><g><path d="M 3 0 L 3 -28.328125 L 6.953125 -28.328125 L 17.15625 -8.578125 L 27.28125 -28.328125 L 31.28125 -28.328125 L 31.28125 0 L 27.890625 0 L 27.890625 -22.25 L 18.40625 -4.046875 L 15.859375 -4.046875 L 6.390625 -22.21875 L 6.390625 0 Z M 3 0 "/></g></g></g><g fill="#ffffff" fill-opacity="1"><g transform="translate(191.07707, 200.435353)"><g><path d="M 1.21875 0 L 11.65625 -28.328125 L 15.25 -28.328125 L 25.65625 0 L 22.0625 0 L 19.46875 -7.28125 L 7.40625 -7.28125 L 4.78125 0 Z M 8.421875 -10.03125 L 18.453125 -10.03125 L 13.4375 -24.03125 Z M 8.421875 -10.03125 "/></g></g></g><g fill="#ffffff" fill-opacity="1"><g transform="translate(224.223287, 200.435353)"><g><path d="M 3 0 L 3 -28.328125 L 6.390625 -28.328125 L 21.484375 -5.625 L 21.484375 -28.328125 L 24.890625 -28.328125 L 24.890625 0 L 21.484375 0 L 6.390625 -22.703125 L 6.390625 0 Z M 3 0 "/></g></g></g><g fill="#ffffff" fill-opacity="1"><g transform="translate(258.38127, 200.435353)"><g><path d="M 1.21875 0 L 11.65625 -28.328125 L 15.25 -28.328125 L 25.65625 0 L 22.0625 0 L 19.46875 -7.28125 L 7.40625 -7.28125 L 4.78125 0 Z M 8.421875 -10.03125 L 18.453125 -10.03125 L 13.4375 -24.03125 Z M 8.421875 -10.03125 "/></g></g></g><g fill="#ffffff" fill-opacity="1"><g transform="translate(291.527485, 200.435353)"><g><path d="M 15.171875 0.484375 C 12.523438 0.484375 10.203125 -0.128906 8.203125 -1.359375 C 6.210938 -2.585938 4.664062 -4.300781 3.5625 -6.5 C 2.457031 -8.695312 1.90625 -11.238281 1.90625 -14.125 C 1.90625 -17.007812 2.460938 -19.554688 3.578125 -21.765625 C 4.703125 -23.984375 6.296875 -25.710938 8.359375 -26.953125 C 10.421875 -28.191406 12.851562 -28.8125 15.65625 -28.8125 C 18.84375 -28.8125 21.492188 -28.039062 23.609375 -26.5 C 25.734375 -24.96875 27.101562 -22.851562 27.71875 -20.15625 L 23.796875 -20.15625 C 23.421875 -21.851562 22.523438 -23.203125 21.109375 -24.203125 C 19.691406 -25.203125 17.875 -25.703125 15.65625 -25.703125 C 13.582031 -25.703125 11.773438 -25.234375 10.234375 -24.296875 C 8.703125 -23.367188 7.507812 -22.039062 6.65625 -20.3125 C 5.800781 -18.582031 5.375 -16.519531 5.375 -14.125 C 5.375 -11.71875 5.789062 -9.648438 6.625 -7.921875 C 7.46875 -6.203125 8.628906 -4.875 10.109375 -3.9375 C 11.597656 -3.007812 13.328125 -2.546875 15.296875 -2.546875 C 18.316406 -2.546875 20.59375 -3.425781 22.125 -5.1875 C 23.664062 -6.957031 24.546875 -9.382812 24.765625 -12.46875 L 16.59375 -12.46875 L 16.59375 -15.140625 L 28.25 -15.140625 L 28.25 0 L 25.125 0 L 24.84375 -4.65625 C 23.820312 -3.007812 22.566406 -1.738281 21.078125 -0.84375 C 19.597656 0.0390625 17.628906 0.484375 15.171875 0.484375 Z M 15.171875 0.484375 "/></g></g></g><g fill="#ffffff" fill-opacity="1"><g transform="translate(328.437416, 200.435353)"><g><path d="M 3 0 L 3 -28.328125 L 20.515625 -28.328125 L 20.515625 -25.53125 L 6.390625 -25.53125 L 6.390625 -15.65625 L 19.296875 -15.65625 L 19.296875 -12.90625 L 6.390625 -12.90625 L 6.390625 -2.796875 L 20.515625 -2.796875 L 20.515625 0 Z M 3 0 "/></g></g></g></svg>