<svg xmlns="http://www.w3.org/2000/svg" xmlns:xlink="http://www.w3.org/1999/xlink" width="500" zoomAndPan="magnify" viewBox="0 0 375 374.999991" height="500" preserveAspectRatio="xMidYMid meet" version="1.0"><defs><g/><clipPath id="f94f49a270"><path d="M 21.109375 163 L 69.859375 163 L 69.859375 211.703125 L 21.109375 211.703125 Z M 21.109375 163 " clip-rule="nonzero"/></clipPath></defs><g clip-path="url(#f94f49a270)"><path fill="#ffffff" d="M 30.835938 202.925781 L 31.386719 203.472656 L 31.441406 203.527344 C 33.160156 205.304688 33.140625 208.171875 31.386719 209.925781 C 29.632812 211.679688 26.769531 211.699219 24.992188 209.980469 L 24.933594 209.925781 L 24.382812 209.378906 L 22.878906 207.871094 C 21.109375 206.097656 21.109375 203.195312 22.878906 201.414062 C 24.652344 199.644531 27.5625 199.644531 29.332031 201.414062 Z M 61.269531 177.957031 L 68.042969 171.183594 C 69.816406 169.410156 69.816406 166.507812 68.042969 164.726562 C 66.265625 162.953125 63.363281 162.953125 61.589844 164.726562 L 55.964844 170.355469 L 51.59375 174.726562 C 49.820312 176.5 49.820312 179.402344 51.59375 181.183594 L 54.820312 184.410156 L 55.394531 184.980469 L 61.632812 191.21875 C 63.40625 192.992188 66.308594 192.992188 68.085938 191.21875 C 69.859375 189.445312 69.859375 186.539062 68.085938 184.765625 L 61.847656 178.527344 Z M 23.136719 164.769531 L 23.136719 164.765625 C 24.910156 162.992188 27.816406 162.992188 29.589844 164.765625 L 68 203.1875 C 69.777344 204.960938 69.777344 207.871094 68 209.644531 C 66.226562 211.414062 63.324219 211.414062 61.546875 209.644531 L 23.136719 171.21875 C 21.367188 169.445312 21.367188 166.542969 23.136719 164.769531 Z M 23.082031 183.164062 C 24.855469 181.390625 27.757812 181.390625 29.535156 183.164062 L 43.375 197.003906 L 49.609375 203.242188 C 51.382812 205.015625 51.382812 207.925781 49.609375 209.699219 C 47.832031 211.472656 44.929688 211.472656 43.160156 209.699219 L 36.921875 203.457031 L 23.082031 189.617188 C 21.3125 187.84375 21.3125 184.9375 23.082031 183.164062 Z M 23.082031 183.164062 " fill-opacity="1" fill-rule="evenodd"/></g><g fill="#ffffff" fill-opacity="1"><g transform="translate(81.919886, 200.123707)"><g><path d="M 2.734375 0 L 2.734375 -28.09375 L 20.859375 -28.09375 L 20.859375 -23.953125 L 7.859375 -23.953125 L 7.859375 -16.09375 L 18.375 -16.09375 L 18.375 -12.03125 L 7.859375 -12.03125 L 7.859375 0 Z M 2.734375 0 "/></g></g></g><g fill="#ffffff" fill-opacity="1"><g transform="translate(110.25324, 200.123707)"><g><path d="M 2.734375 0 L 2.734375 -28.09375 L 7.859375 -28.09375 L 7.859375 0 Z M 2.734375 0 "/></g></g></g><g fill="#ffffff" fill-opacity="1"><g transform="translate(127.069147, 200.123707)"><g><path d="M 9.265625 0 L 9.265625 -23.953125 L 1.078125 -23.953125 L 1.078125 -28.09375 L 22.625 -28.09375 L 22.625 -23.953125 L 14.40625 -23.953125 L 14.40625 0 Z M 9.265625 0 "/></g></g></g><g fill="#ffffff" fill-opacity="1"><g transform="translate(151.711972, 200.123707)"><g><path d="M 2.96875 0 L 2.96875 -28.09375 L 6.90625 -28.09375 L 17.015625 -8.5 L 27.046875 -28.09375 L 31.015625 -28.09375 L 31.015625 0 L 27.640625 0 L 27.640625 -22.0625 L 18.25 -4.015625 L 15.734375 -4.015625 L 6.34375 -22.03125 L 6.34375 0 Z M 2.96875 0 "/></g></g></g><g fill="#ffffff" fill-opacity="1"><g transform="translate(191.923931, 200.123707)"><g><path d="M 1.203125 0 L 11.5625 -28.09375 L 15.125 -28.09375 L 25.4375 0 L 21.875 0 L 19.296875 -7.21875 L 7.34375 -7.21875 L 4.734375 0 Z M 8.34375 -9.953125 L 18.296875 -9.953125 L 13.328125 -23.828125 Z M 8.34375 -9.953125 "/></g></g></g><g fill="#ffffff" fill-opacity="1"><g transform="translate(224.792017, 200.123707)"><g><path d="M 2.96875 0 L 2.96875 -28.09375 L 6.34375 -28.09375 L 21.3125 -5.578125 L 21.3125 -28.09375 L 24.671875 -28.09375 L 24.671875 0 L 21.3125 0 L 6.34375 -22.515625 L 6.34375 0 Z M 2.96875 0 "/></g></g></g><g fill="#ffffff" fill-opacity="1"><g transform="translate(258.663378, 200.123707)"><g><path d="M 1.203125 0 L 11.5625 -28.09375 L 15.125 -28.09375 L 25.4375 0 L 21.875 0 L 19.296875 -7.21875 L 7.34375 -7.21875 L 4.734375 0 Z M 8.34375 -9.953125 L 18.296875 -9.953125 L 13.328125 -23.828125 Z M 8.34375 -9.953125 "/></g></g></g><g fill="#ffffff" fill-opacity="1"><g transform="translate(291.53146, 200.123707)"><g><path d="M 15.046875 0.484375 C 12.421875 0.484375 10.117188 -0.125 8.140625 -1.34375 C 6.160156 -2.5625 4.625 -4.257812 3.53125 -6.4375 C 2.4375 -8.613281 1.890625 -11.132812 1.890625 -14 C 1.890625 -16.863281 2.441406 -19.390625 3.546875 -21.578125 C 4.660156 -23.773438 6.238281 -25.488281 8.28125 -26.71875 C 10.332031 -27.945312 12.75 -28.5625 15.53125 -28.5625 C 18.6875 -28.5625 21.3125 -27.800781 23.40625 -26.28125 C 25.507812 -24.757812 26.867188 -22.660156 27.484375 -19.984375 L 23.59375 -19.984375 C 23.21875 -21.671875 22.328125 -23.007812 20.921875 -24 C 19.515625 -24.988281 17.71875 -25.484375 15.53125 -25.484375 C 13.46875 -25.484375 11.671875 -25.019531 10.140625 -24.09375 C 8.617188 -23.164062 7.4375 -21.847656 6.59375 -20.140625 C 5.757812 -18.429688 5.34375 -16.382812 5.34375 -14 C 5.34375 -11.625 5.753906 -9.578125 6.578125 -7.859375 C 7.410156 -6.148438 8.5625 -4.832031 10.03125 -3.90625 C 11.5 -2.988281 13.210938 -2.53125 15.171875 -2.53125 C 18.160156 -2.53125 20.414062 -3.40625 21.9375 -5.15625 C 23.46875 -6.90625 24.34375 -9.304688 24.5625 -12.359375 L 16.453125 -12.359375 L 16.453125 -15 L 28 -15 L 28 0 L 24.921875 0 L 24.640625 -4.609375 C 23.617188 -2.984375 22.375 -1.726562 20.90625 -0.84375 C 19.4375 0.0390625 17.484375 0.484375 15.046875 0.484375 Z M 15.046875 0.484375 "/></g></g></g><g fill="#ffffff" fill-opacity="1"><g transform="translate(328.131677, 200.123707)"><g><path d="M 2.96875 0 L 2.96875 -28.09375 L 20.34375 -28.09375 L 20.34375 -25.3125 L 6.34375 -25.3125 L 6.34375 -15.53125 L 19.140625 -15.53125 L 19.140625 -12.796875 L 6.34375 -12.796875 L 6.34375 -2.765625 L 20.34375 -2.765625 L 20.34375 0 Z M 2.96875 0 "/></g></g></g></svg>